<svg xmlns="http://www.w3.org/2000/svg" xmlns:xlink="http://www.w3.org/1999/xlink" width="500" zoomAndPan="magnify" viewBox="0 0 375 74.999997" height="100" preserveAspectRatio="xMidYMid meet" version="1.0"><defs><g/></defs><g fill="#1f68f5" fill-opacity="1"><g transform="translate(4.794498, 58.166686)"><g><path d="M 33.96875 -26.359375 L 24.015625 -26.359375 L 24.015625 0 L 12.15625 0 L 12.15625 -26.359375 L 2.125 -26.359375 L 2.125 -36.609375 L 33.96875 -36.609375 Z M 33.96875 -26.359375 "/></g></g></g><g fill="#ffffff" fill-opacity="1"><g transform="translate(40.888245, 58.166686)"><g><path d="M 22.703125 -29.875 C 24.597656 -29.875 26.375 -29.445312 28.03125 -28.59375 C 29.695312 -27.738281 31.019531 -26.382812 32 -24.53125 L 23.875 -16.984375 C 22.40625 -18.984375 20.597656 -19.984375 18.453125 -19.984375 C 17.421875 -19.984375 16.550781 -19.3125 15.84375 -17.96875 C 15.144531 -16.625 14.625 -14.6875 14.28125 -12.15625 L 14.28125 0 L 2.421875 0 L 2.421875 -29.28125 L 14.28125 -29.28125 L 14.28125 -24.671875 C 15.988281 -28.035156 18.796875 -29.769531 22.703125 -29.875 Z M 22.703125 -29.875 "/></g></g></g><g fill="#ffffff" fill-opacity="1"><g transform="translate(73.466139, 58.166686)"><g><path d="M 33.609375 -29.28125 L 33.609375 0 L 21.671875 0 L 21.671875 -4.09375 C 19.910156 -0.976562 17.421875 0.578125 14.203125 0.578125 C 10.203125 0.578125 7.125 -0.75 4.96875 -3.40625 C 2.820312 -6.0625 1.75 -9.804688 1.75 -14.640625 C 1.75 -19.523438 2.820312 -23.285156 4.96875 -25.921875 C 7.125 -28.554688 10.203125 -29.875 14.203125 -29.875 C 17.472656 -29.875 19.960938 -28.335938 21.671875 -25.265625 L 21.671875 -29.28125 Z M 17.640625 -9 C 18.960938 -9 19.960938 -9.488281 20.640625 -10.46875 C 21.328125 -11.445312 21.671875 -12.835938 21.671875 -14.640625 C 21.671875 -18.453125 20.328125 -20.359375 17.640625 -20.359375 C 14.859375 -20.359375 13.46875 -18.453125 13.46875 -14.640625 C 13.46875 -12.835938 13.820312 -11.445312 14.53125 -10.46875 C 15.238281 -9.488281 16.273438 -9 17.640625 -9 Z M 17.640625 -9 "/></g></g></g><g fill="#ffffff" fill-opacity="1"><g transform="translate(109.411627, 58.166686)"><g><path d="M 33.609375 -36.609375 L 33.609375 0 L 21.671875 0 L 21.671875 -4.09375 C 19.910156 -0.976562 17.421875 0.578125 14.203125 0.578125 C 10.203125 0.578125 7.125 -0.75 4.96875 -3.40625 C 2.820312 -6.0625 1.75 -9.804688 1.75 -14.640625 C 1.75 -19.523438 2.820312 -23.285156 4.96875 -25.921875 C 7.125 -28.554688 10.203125 -29.875 14.203125 -29.875 C 17.472656 -29.875 19.960938 -28.335938 21.671875 -25.265625 L 21.671875 -36.609375 Z M 17.640625 -9 C 18.960938 -9 19.960938 -9.488281 20.640625 -10.46875 C 21.328125 -11.445312 21.671875 -12.835938 21.671875 -14.640625 C 21.671875 -18.453125 20.328125 -20.359375 17.640625 -20.359375 C 14.859375 -20.359375 13.46875 -18.453125 13.46875 -14.640625 C 13.46875 -12.835938 13.820312 -11.445312 14.53125 -10.46875 C 15.238281 -9.488281 16.273438 -9 17.640625 -9 Z M 17.640625 -9 "/></g></g></g><g fill="#ffffff" fill-opacity="1"><g transform="translate(145.357116, 58.166686)"><g><path d="M 33.609375 -14.640625 C 33.609375 -14.109375 33.554688 -13.546875 33.453125 -12.953125 C 33.359375 -12.367188 33.265625 -11.8125 33.171875 -11.28125 L 13.984375 -11.28125 C 14.710938 -9.269531 15.984375 -8.265625 17.796875 -8.265625 C 19.210938 -8.265625 20.1875 -8.953125 20.71875 -10.328125 L 32.5 -8.34375 C 31.425781 -5.507812 29.597656 -3.3125 27.015625 -1.75 C 24.429688 -0.195312 21.304688 0.578125 17.640625 0.578125 C 12.566406 0.578125 8.648438 -0.75 5.890625 -3.40625 C 3.128906 -6.0625 1.75 -9.804688 1.75 -14.640625 C 1.75 -19.523438 3.128906 -23.285156 5.890625 -25.921875 C 8.648438 -28.554688 12.566406 -29.875 17.640625 -29.875 C 22.722656 -29.875 26.65625 -28.554688 29.4375 -25.921875 C 32.21875 -23.285156 33.609375 -19.523438 33.609375 -14.640625 Z M 21.375 -17.359375 C 20.40625 -19.835938 19.160156 -21.078125 17.640625 -21.078125 C 15.585938 -21.078125 14.269531 -19.835938 13.6875 -17.359375 Z M 21.375 -17.359375 "/></g></g></g><g fill="#1f68f5" fill-opacity="1"><g transform="translate(180.64605, 58.166686)"><g><path d="M 14.28125 -27.453125 L 14.28125 -22.703125 L 30.453125 -22.703125 L 30.453125 -13.90625 L 14.28125 -13.90625 L 14.28125 0 L 2.421875 0 L 2.421875 -36.609375 L 30.453125 -36.609375 L 30.453125 -27.453125 Z M 14.28125 -27.453125 "/></g></g></g><g fill="#ffffff" fill-opacity="1"><g transform="translate(213.517137, 58.166686)"><g><path d="M 8.34375 -31.265625 C 6.4375 -31.265625 4.972656 -31.675781 3.953125 -32.5 C 2.929688 -33.332031 2.421875 -34.503906 2.421875 -36.015625 C 2.421875 -37.535156 2.929688 -38.707031 3.953125 -39.53125 C 4.972656 -40.363281 6.4375 -40.78125 8.34375 -40.78125 C 10.25 -40.78125 11.722656 -40.363281 12.765625 -39.53125 C 13.816406 -38.707031 14.34375 -37.535156 14.34375 -36.015625 C 14.34375 -34.503906 13.816406 -33.332031 12.765625 -32.5 C 11.722656 -31.675781 10.25 -31.265625 8.34375 -31.265625 Z M 14.34375 -29.28125 L 14.34375 0 L 2.421875 0 L 2.421875 -29.28125 Z M 14.34375 -29.28125 "/></g></g></g><g fill="#ffffff" fill-opacity="1"><g transform="translate(230.208733, 58.166686)"><g><path d="M 22.84375 -29.875 C 26.5 -29.875 29.316406 -28.710938 31.296875 -26.390625 C 33.273438 -24.078125 34.265625 -20.820312 34.265625 -16.625 L 34.265625 0 L 22.328125 0 L 22.328125 -12.453125 C 22.328125 -14.890625 22.007812 -16.753906 21.375 -18.046875 C 20.738281 -19.335938 19.8125 -19.984375 18.59375 -19.984375 C 16.445312 -19.984375 15.007812 -18.175781 14.28125 -14.5625 L 14.28125 0 L 2.421875 0 L 2.421875 -29.28125 L 14.28125 -29.28125 L 14.28125 -24.671875 C 16.03125 -28.035156 18.882812 -29.769531 22.84375 -29.875 Z M 22.84375 -29.875 "/></g></g></g><g fill="#ffffff" fill-opacity="1"><g transform="translate(266.373857, 58.166686)"><g><path d="M 33.609375 -36.609375 L 33.609375 0 L 21.671875 0 L 21.671875 -4.09375 C 19.910156 -0.976562 17.421875 0.578125 14.203125 0.578125 C 10.203125 0.578125 7.125 -0.75 4.96875 -3.40625 C 2.820312 -6.0625 1.75 -9.804688 1.75 -14.640625 C 1.75 -19.523438 2.820312 -23.285156 4.96875 -25.921875 C 7.125 -28.554688 10.203125 -29.875 14.203125 -29.875 C 17.472656 -29.875 19.960938 -28.335938 21.671875 -25.265625 L 21.671875 -36.609375 Z M 17.640625 -9 C 18.960938 -9 19.960938 -9.488281 20.640625 -10.46875 C 21.328125 -11.445312 21.671875 -12.835938 21.671875 -14.640625 C 21.671875 -18.453125 20.328125 -20.359375 17.640625 -20.359375 C 14.859375 -20.359375 13.46875 -18.453125 13.46875 -14.640625 C 13.46875 -12.835938 13.820312 -11.445312 14.53125 -10.46875 C 15.238281 -9.488281 16.273438 -9 17.640625 -9 Z M 17.640625 -9 "/></g></g></g><g fill="#ffffff" fill-opacity="1"><g transform="translate(302.319345, 58.166686)"><g><path d="M 33.609375 -14.640625 C 33.609375 -14.109375 33.554688 -13.546875 33.453125 -12.953125 C 33.359375 -12.367188 33.265625 -11.8125 33.171875 -11.28125 L 13.984375 -11.28125 C 14.710938 -9.269531 15.984375 -8.265625 17.796875 -8.265625 C 19.210938 -8.265625 20.1875 -8.953125 20.71875 -10.328125 L 32.5 -8.34375 C 31.425781 -5.507812 29.597656 -3.3125 27.015625 -1.75 C 24.429688 -0.195312 21.304688 0.578125 17.640625 0.578125 C 12.566406 0.578125 8.648438 -0.75 5.890625 -3.40625 C 3.128906 -6.0625 1.75 -9.804688 1.75 -14.640625 C 1.75 -19.523438 3.128906 -23.285156 5.890625 -25.921875 C 8.648438 -28.554688 12.566406 -29.875 17.640625 -29.875 C 22.722656 -29.875 26.65625 -28.554688 29.4375 -25.921875 C 32.21875 -23.285156 33.609375 -19.523438 33.609375 -14.640625 Z M 21.375 -17.359375 C 20.40625 -19.835938 19.160156 -21.078125 17.640625 -21.078125 C 15.585938 -21.078125 14.269531 -19.835938 13.6875 -17.359375 Z M 21.375 -17.359375 "/></g></g></g><g fill="#ffffff" fill-opacity="1"><g transform="translate(337.605964, 58.166686)"><g><path d="M 22.703125 -29.875 C 24.597656 -29.875 26.375 -29.445312 28.03125 -28.59375 C 29.695312 -27.738281 31.019531 -26.382812 32 -24.53125 L 23.875 -16.984375 C 22.40625 -18.984375 20.597656 -19.984375 18.453125 -19.984375 C 17.421875 -19.984375 16.550781 -19.3125 15.84375 -17.96875 C 15.144531 -16.625 14.625 -14.6875 14.28125 -12.15625 L 14.28125 0 L 2.421875 0 L 2.421875 -29.28125 L 14.28125 -29.28125 L 14.28125 -24.671875 C 15.988281 -28.035156 18.796875 -29.769531 22.703125 -29.875 Z M 22.703125 -29.875 "/></g></g></g></svg>